Coordinates
version=1
nRows=11
nColumns=38
inDegrees=no

Units are S.I. units (second, meters, Newtons, ...)
If the header above contains a line with 'inDegrees', this indicates whether rotational values are in degrees (yes) or radians (no).

endheader
time	pelvis_tilt	pelvis_list	pelvis_rotation	pelvis_tx	pelvis_ty	pelvis_tz	hip_flexion_r	hip_adduction_r	hip_rotation_r	knee_angle_r	ankle_angle_r	subtalar_angle_r	mtp_angle_r	hip_flexion_l	hip_adduction_l	hip_rotation_l	knee_angle_l	ankle_angle_l	subtalar_angle_l	mtp_angle_l	lumbar_extension	lumbar_bending	lumbar_rotation	arm_flex_r	arm_add_r	arm_rot_r	elbow_flex_r	pro_sup_r	wrist_flex_r	wrist_dev_r	arm_flex_l	arm_add_l	arm_rot_l	elbow_flex_l	pro_sup_l	wrist_flex_l	wrist_dev_l
2.36667	-0.168905	0.0189053	-0.116338	0.948825	0.931448	-0.334217	0.409488	0.0804318	-0.0682862	-0.80668	0.607338	0.1	-0.000124659	0.775539	-0.126492	-0.125213	-2.19005	0.262212	0.1	-0.0014551	-0.0730348	0.0367547	0.04583	-0.381227	-0.409099	0.0662957	1.66936	2.00106	-0.00103888	0.000440825	-0.622096	-0.223902	0.0182107	1.65902	2.13524	0.0018568	-0.00311435
2.375	-0.169741	0.0314314	-0.105017	0.949125	0.934723	-0.334794	0.347128	0.0612807	-0.0674719	-0.763168	0.621333	0.1	-0.000124659	0.83411	-0.104242	-0.113505	-2.14229	0.276033	0.1	-0.0014551	-0.0682892	0.0193237	0.0528745	-0.350812	-0.40086	0.0707887	1.70252	1.9914	-0.00103888	0.000440825	-0.652595	-0.23142	0.0159206	1.6618	2.13386	0.0018568	-0.00311435
2.38333	-0.169603	0.045626	-0.0922254	0.950369	0.93895	-0.3351	0.278921	0.0415419	-0.0709633	-0.710571	0.620681	0.1	-0.000124659	0.882921	-0.079693	-0.105501	-2.08164	0.288306	0.1	-0.0014551	-0.0624017	-0.0011498	0.05735	-0.326318	-0.390625	0.0743019	1.73807	1.98172	-0.00103888	0.000440825	-0.687507	-0.24027	0.0120299	1.67348	2.13496	0.0018568	-0.00311435
2.39167	-0.168726	0.0614136	-0.0779909	0.952459	0.943956	-0.33522	0.206348	0.0210612	-0.0811276	-0.651424	0.60346	0.1	-0.000124659	0.921919	-0.053078	-0.101097	-2.00936	0.299551	0.1	-0.0014551	-0.0555524	-0.0243941	0.0593896	-0.307695	-0.379121	0.0776259	1.77533	1.97273	-0.00103888	0.000440825	-0.726011	-0.250033	0.00650263	1.69259	2.13811	0.0018568	-0.00311435
2.4	-0.167447	0.0786634	-0.0623773	0.955252	0.949538	-0.33528	0.131268	-0.000276733	-0.0996973	-0.588523	0.568856	0.1	-0.000124659	0.951627	-0.0244759	-0.099815	-1.92671	0.310214	0.1	-0.0014551	-0.0479292	-0.0499732	0.0592111	-0.294614	-0.367269	0.0814918	1.81362	1.96492	-0.00103888	0.000440825	-0.767026	-0.260263	-0.000495779	1.71738	2.14277	0.0018568	-0.00311435
2.40833	-0.166194	0.0970785	-0.0455624	0.958566	0.955479	-0.335411	0.055831	-0.0223549	-0.127277	-0.524798	0.517493	0.1	-0.000124659	0.973007	0.0059535	-0.100908	-1.83489	0.320684	0.1	-0.0014551	-0.0396679	-0.0772174	0.0571871	-0.286566	-0.35605	0.0864653	1.85233	1.95857	-0.00103888	0.000440825	-0.809305	-0.270556	-0.00863922	1.74601	2.14842	0.0018568	-0.00311435
2.41667	-0.16543	0.116092	-0.0278895	0.962202	0.961559	-0.335718	-0.017704	-0.0447119	-0.163014	-0.463134	0.451464	0.1	-0.000124659	0.987272	0.0377478	-0.103521	-1.73502	0.331351	0.1	-0.0014551	-0.0308221	-0.105196	0.0538736	-0.282953	-0.346364	0.0928893	1.89084	1.95386	-0.00103888	0.000440825	-0.851546	-0.280591	-0.0175103	1.77671	2.15473	0.0018568	-0.00311435
2.425	-0.165582	0.134856	-0.00988596	0.965964	0.967556	-0.336253	-0.0871736	-0.0665096	-0.204475	-0.406252	0.374249	0.1	-0.000124659	0.995696	0.0699951	-0.106871	-1.62824	0.342637	0.1	-0.0014551	-0.0213792	-0.132726	0.0499906	-0.283144	-0.33891	0.100879	1.92848	1.9509	-0.00103888	0.000440825	-0.892477	-0.290154	-0.0266764	1.80793	2.16156	0.0018568	-0.00311435
2.43333	-0.166954	0.152291	0.00775053	0.969678	0.973257	-0.337007	-0.150703	-0.0866036	-0.247803	-0.356635	0.290456	0.1	-0.000124659	0.999439	0.101323	-0.110424	-1.51578	0.355001	0.1	-0.0014551	-0.0113103	-0.158446	0.0463552	-0.286512	-0.334103	0.110355	1.96444	1.94981	-0.00103888	0.000440825	-0.930928	-0.299132	-0.035755	1.83838	2.16903	0.0018568	-0.00311435
2.44167	-0.169668	0.167193	0.0242031	0.973187	0.978482	-0.337905	-0.206828	-0.103686	-0.288135	-0.316527	0.205446	0.1	-0.000124659	0.999433	0.130007	-0.114046	-1.39901	0.368944	0.1	-0.0014551	-0.000636883	-0.180939	0.0437825	-0.29244	-0.332043	0.121084	1.9978	1.95065	-0.00103888	0.000440825	-0.965872	-0.307483	-0.0444529	1.86705	2.17737	0.0018568	-0.00311435
2.45	-0.173621	0.178396	0.0386257	0.976363	0.983085	-0.338814	-0.254553	-0.116492	-0.320355	-0.287946	0.124782	0.1	-0.000124659	0.996327	0.15421	-0.118058	-1.27953	0.384946	0.1	-0.0014551	0.0105025	-0.198886	0.042965	-0.300323	-0.332533	0.132724	2.02749	1.95338	-0.00103888	0.000440825	-0.996445	-0.315188	-0.0525762	1.89316	2.18686	0.0018568	-0.00311435
